<svg version="1.1" id="Layer_1" xmlns="http://www.w3.org/2000/svg" xmlns:xlink="http://www.w3.org/1999/xlink" x="0px" y="0px"
	 width="100%" viewBox="0 0 335 114" enable-background="new 0 0 335 114" xml:space="preserve">
<path fill="#613B13" opacity="1.000000" stroke="none" 
	d="
M336.000000,67.000000 
	C336.000000,82.928238 336.000000,98.856468 336.000000,115.000000 
	C319.646393,115.000000 303.291870,115.000000 286.544800,114.608795 
	C285.620850,109.406311 283.160980,107.859703 278.161743,107.871544 
	C205.288132,108.044067 132.413910,108.042473 59.540237,107.884140 
	C54.091499,107.872292 51.978485,109.936821 52.000000,115.000000 
	C35.979103,115.000000 19.958210,115.000000 3.471659,114.531349 
	C3.007843,100.068001 3.088956,86.072502 2.948976,72.079224 
	C2.918615,69.044159 3.536593,67.065254 6.683580,66.069679 
	C9.951530,65.035828 12.189047,63.446190 12.278942,59.096291 
	C12.375758,54.411461 9.751318,52.994087 6.402158,51.780567 
	C3.857630,50.858585 2.920434,49.380554 2.950367,46.604767 
	C3.092281,33.444706 3.068902,20.281876 2.972490,7.121000 
	C2.951044,4.193471 3.839332,2.940294 6.955003,2.966744 
	C20.448816,3.081298 33.945026,2.945602 47.437729,3.113362 
	C48.962368,3.132319 51.565018,4.241496 51.802383,5.273974 
	C53.033092,10.627291 56.897358,10.030849 60.775238,10.029433 
	C132.914093,10.003106 205.052948,10.010160 277.191803,10.009720 
	C278.358002,10.009713 279.670959,10.345922 280.657166,9.923024 
	C282.267395,9.232533 284.403015,8.369002 285.002136,7.002139 
	C286.359863,3.904718 288.235779,2.913188 291.528320,2.945480 
	C306.350952,3.090853 321.175903,3.003469 336.000000,3.000000 
	C336.000000,18.687561 336.000000,34.375122 335.610840,50.446056 
	C331.416901,52.124737 326.367371,51.826393 326.016479,57.671131 
	C325.632355,64.069427 328.278107,66.485329 336.000000,67.000000 
M21.072233,46.885155 
	C21.116997,49.257385 21.161760,51.629620 21.077017,54.914967 
	C21.115345,58.607395 21.153671,62.299828 21.077457,66.875938 
	C21.118488,69.249146 21.159521,71.622345 21.070871,74.864166 
	C21.111111,76.910995 21.151348,78.957825 21.068357,81.885719 
	C21.111219,84.257133 21.154081,86.628540 21.071995,89.910034 
	C21.071995,92.853516 21.071995,95.796989 21.071995,99.384407 
	C23.953531,99.384407 26.234701,99.384399 28.515873,99.384399 
	C122.075089,99.384399 215.634293,99.384598 309.193512,99.384087 
	C317.705902,99.384041 317.707397,99.381859 317.315155,90.977493 
	C317.299774,90.647881 317.203918,90.322014 317.314423,89.111221 
	C317.270416,86.422333 317.226379,83.733444 317.434662,80.334236 
	C317.348877,78.562668 317.263062,76.791092 317.418976,74.203178 
	C317.330536,71.469467 317.242096,68.735756 317.328033,65.143730 
	C317.279968,61.419334 317.231873,57.694942 317.426544,53.115284 
	C317.338104,49.079769 317.249664,45.044250 317.337036,40.083523 
	C317.371124,35.423664 317.424591,30.763845 317.434906,26.103931 
	C317.451599,18.563335 317.439636,18.561792 309.911774,18.558327 
	C215.538635,18.514879 121.165504,18.470554 26.792368,18.438988 
	C25.005604,18.438391 23.218788,18.590143 21.194872,18.681519 
	C21.194872,26.074221 21.194872,33.033562 21.063715,40.844173 
	C21.108126,42.564182 21.152538,44.284187 21.072233,46.885155 
z"/>
<path fill="#000000" opacity="1.000000" stroke="none" 
	d="
M336.000000,2.500003 
	C321.175903,3.003469 306.350952,3.090853 291.528320,2.945480 
	C288.235779,2.913188 286.359863,3.904718 285.002136,7.002139 
	C284.403015,8.369002 282.267395,9.232533 280.657166,9.923024 
	C279.670959,10.345922 278.358002,10.009713 277.191803,10.009720 
	C205.052948,10.010160 132.914093,10.003106 60.775238,10.029433 
	C56.897358,10.030849 53.033092,10.627291 51.802383,5.273974 
	C51.565018,4.241496 48.962368,3.132319 47.437729,3.113362 
	C33.945026,2.945602 20.448816,3.081298 6.955003,2.966744 
	C3.839332,2.940294 2.951044,4.193471 2.972490,7.121000 
	C3.068902,20.281876 3.092281,33.444706 2.950367,46.604767 
	C2.920434,49.380554 3.857630,50.858585 6.402158,51.780567 
	C9.751318,52.994087 12.375758,54.411461 12.278942,59.096291 
	C12.189047,63.446190 9.951530,65.035828 6.683580,66.069679 
	C3.536593,67.065254 2.918615,69.044159 2.948976,72.079224 
	C3.088956,86.072502 3.007843,100.068001 3.003002,114.531349 
	C0.507053,115.627693 1.007710,113.828110 1.006378,112.499992 
	C0.995179,101.333344 1.000000,90.166664 1.000000,79.000000 
	C1.000000,53.000000 1.000000,27.000000 1.000000,1.000000 
	C111.166664,1.000000 221.333328,0.996035 331.499969,1.041509 
	C333.000122,1.042128 334.500000,1.666672 336.000000,2.500003 
z"/>
<path fill="#000000" opacity="1.000000" stroke="none" 
	d="
M52.468658,115.000000 
	C51.978485,109.936821 54.091499,107.872292 59.540237,107.884140 
	C132.413910,108.042473 205.288132,108.044067 278.161743,107.871544 
	C283.160980,107.859703 285.620850,109.406311 286.076111,114.608795 
	C208.312439,115.000000 130.624878,115.000000 52.468658,115.000000 
z"/>
<path fill="#000000" opacity="1.000000" stroke="none" 
	d="
M336.000000,66.533142 
	C328.278107,66.485329 325.632355,64.069427 326.016479,57.671131 
	C326.367371,51.826393 331.416901,52.124737 335.610840,50.914715 
	C336.000000,56.022091 336.000000,61.044186 336.000000,66.533142 
z"/>
<path fill="#DDD022" opacity="1.000000" stroke="none" 
	d="
M21.194872,39.992905 
	C21.194872,33.033562 21.194872,26.074221 21.194872,18.681519 
	C23.218788,18.590143 25.005604,18.438391 26.792368,18.438988 
	C121.165504,18.470554 215.538635,18.514879 309.911774,18.558327 
	C317.439636,18.561792 317.451599,18.563335 317.434906,26.103931 
	C317.424591,30.763845 317.371124,35.423664 316.768005,40.544304 
	C283.636688,41.003624 251.074371,40.976845 218.512299,41.056614 
	C216.298096,41.062035 214.085861,41.867973 211.501373,42.172920 
	C207.755737,41.941174 204.381470,41.838116 200.817825,41.407837 
	C199.406830,40.722244 198.186371,40.056316 196.963409,40.051701 
	C179.057861,39.984158 161.151718,39.964748 143.246689,40.081112 
	C141.825012,40.090355 140.410400,41.185753 138.549561,41.793755 
	C135.740829,41.813435 133.375061,41.815735 130.827576,41.481789 
	C129.769226,40.774940 128.894897,40.088158 128.015640,40.081795 
	C117.101959,40.002796 106.187027,39.974007 95.274147,40.092258 
	C94.174744,40.104172 93.086655,41.159473 91.557312,41.754265 
	C89.084450,41.757515 87.047569,41.737053 84.818047,41.390808 
	C82.735626,40.710426 80.847084,40.055351 78.955894,40.047623 
	C59.702469,39.968925 40.448608,39.995674 21.194872,39.992905 
M307.307251,27.001417 
	C307.807007,26.999611 308.388916,27.164497 308.791656,26.965942 
	C310.218170,26.262678 311.583435,25.435244 312.971924,24.654871 
	C311.522888,23.768026 310.129150,22.762882 308.599701,22.048170 
	C307.915405,21.728403 306.958862,21.990023 306.125854,21.990021 
	C214.662064,21.989824 123.198257,21.975115 31.734579,22.076452 
	C29.494612,22.078934 25.365654,20.242702 25.332056,24.362953 
	C25.295271,28.873814 29.624990,26.907152 31.962614,26.909912 
	C123.426277,27.018002 214.890091,27.001726 307.307251,27.001417 
z"/>
<path fill="#EFA81F" opacity="1.000000" stroke="none" 
	d="
M317.145569,89.994408 
	C317.203918,90.322014 317.299774,90.647881 317.315155,90.977493 
	C317.707397,99.381859 317.705902,99.384041 309.193512,99.384087 
	C215.634293,99.384598 122.075089,99.384399 28.515873,99.384399 
	C26.234701,99.384399 23.953531,99.384407 21.071995,99.384407 
	C21.071995,95.796989 21.071995,92.853516 21.547882,89.464775 
	C25.322311,89.346230 28.620707,89.956642 31.919418,89.958359 
	C126.994781,90.007736 222.070175,89.996155 317.145569,89.994408 
z"/>
<path fill="#EAAD20" opacity="1.000000" stroke="none" 
	d="
M317.229980,89.552811 
	C222.070175,89.996155 126.994781,90.007736 31.919418,89.958359 
	C28.620707,89.956642 25.322311,89.346230 21.610355,89.009735 
	C21.154081,86.628540 21.111219,84.257133 21.585735,81.443878 
	C120.462868,81.016212 218.822617,81.030388 317.182373,81.044556 
	C317.226379,83.733444 317.270416,86.422333 317.229980,89.552811 
z"/>
<path fill="#E7B120" opacity="1.000000" stroke="none" 
	d="
M317.308533,80.689392 
	C218.822617,81.030388 120.462868,81.016212 21.647350,81.003342 
	C21.151348,78.957825 21.111111,76.910995 21.590897,74.430801 
	C36.496441,73.998390 50.882626,74.065765 65.266663,73.920380 
	C67.170021,73.901146 69.062416,72.798103 71.246887,72.341263 
	C74.413765,75.548935 77.067154,74.729607 79.559776,71.976479 
	C81.203011,70.161507 82.858398,69.131142 84.968529,71.353485 
	C88.182121,74.738007 91.921043,74.489517 95.906548,72.972855 
	C96.878082,72.603134 98.040657,72.555923 99.098831,72.622711 
	C105.577713,73.031654 112.056931,73.911339 118.525627,73.827820 
	C122.437431,73.777313 125.287613,71.723328 124.401428,66.687416 
	C123.957581,64.165138 123.905304,60.874115 128.812149,60.366146 
	C128.328568,67.557381 130.082153,73.200974 138.397736,73.838005 
	C143.458313,74.225677 144.819717,70.718819 146.528748,66.996025 
	C148.387299,67.013847 149.818604,67.029816 151.295914,67.410545 
	C151.370224,71.121742 153.029434,73.568604 156.350250,73.376427 
	C162.703293,73.008781 170.023926,75.948723 174.527100,68.148857 
	C179.931183,73.725708 185.785980,75.071815 192.640060,72.549591 
	C193.927841,72.075699 195.764984,73.116646 197.353500,73.434212 
	C203.439621,74.650848 205.931473,73.021408 206.374924,68.702187 
	C210.161407,70.332062 214.119553,73.018829 218.371201,73.616058 
	C223.635040,74.355484 229.141006,73.324730 234.545013,73.133499 
	C237.026764,73.045677 239.515472,73.177322 241.999847,73.137207 
	C247.477829,73.048737 253.106445,74.929916 258.380493,71.858238 
	C258.814453,71.605469 259.652313,72.129433 260.309052,72.162575 
	C265.190979,72.408958 270.074524,72.622482 275.226990,73.131134 
	C277.680695,73.943771 279.859222,74.898605 282.050293,74.928154 
	C293.757568,75.086044 305.467926,75.012833 317.177246,75.019524 
	C317.263062,76.791092 317.348877,78.562668 317.308533,80.689392 
z"/>
<path fill="#DFC421" opacity="1.000000" stroke="none" 
	d="
M211.872711,42.301613 
	C214.085861,41.867973 216.298096,41.062035 218.512299,41.056614 
	C251.074371,40.976845 283.636688,41.003624 316.680084,41.006912 
	C317.249664,45.044250 317.338104,49.079769 316.894348,53.551025 
	C303.765137,54.030029 291.168182,54.073292 278.391235,53.845913 
	C273.697021,45.922054 268.702179,44.883167 259.374268,49.657337 
	C254.576019,44.749283 254.062225,44.780239 247.101974,49.212944 
	C234.673172,48.317184 224.174347,47.560520 213.454300,46.787914 
	C212.947433,45.350121 212.410065,43.825867 211.872711,42.301613 
z"/>
<path fill="#E5BE21" opacity="1.000000" stroke="none" 
	d="
M21.191998,65.992256 
	C21.153671,62.299828 21.115345,58.607395 21.596638,54.457535 
	C37.057949,53.999332 51.999634,53.998569 67.109192,54.316849 
	C68.285561,56.631351 69.294052,58.626808 70.302757,60.622162 
	C69.273689,62.414993 68.244415,64.207939 66.733002,66.000656 
	C51.231236,65.997704 36.211617,65.994980 21.191998,65.992256 
z"/>
<path fill="#E5BD21" opacity="1.000000" stroke="none" 
	d="
M278.571228,54.116550 
	C291.168182,54.073292 303.765137,54.030029 316.772949,53.978657 
	C317.231873,57.694942 317.279968,61.419334 316.760193,65.572586 
	C303.824860,65.999809 291.457367,65.998184 279.012848,65.613655 
	C278.814270,61.526016 278.692749,57.821285 278.571228,54.116550 
z"/>
<path fill="#E7B720" opacity="1.000000" stroke="none" 
	d="
M21.134727,66.434097 
	C36.211617,65.994980 51.231236,65.997704 66.876923,66.296318 
	C68.655296,68.460472 69.807594,70.328735 70.959892,72.196999 
	C69.062416,72.798103 67.170021,73.901146 65.266663,73.920380 
	C50.882626,74.065765 36.496441,73.998390 21.655739,73.996490 
	C21.159521,71.622345 21.118488,69.249146 21.134727,66.434097 
z"/>
<path fill="#E2C621" opacity="1.000000" stroke="none" 
	d="
M66.941322,53.997803 
	C51.999634,53.998569 37.057949,53.999332 21.661392,54.000977 
	C21.161760,51.629620 21.116997,49.257385 21.590115,46.443695 
	C35.705048,46.001324 49.302479,45.950474 62.898754,46.052887 
	C64.958702,46.068401 67.013290,46.796558 68.933502,47.520107 
	C68.178200,49.896023 67.559761,51.946911 66.941322,53.997803 
z"/>
<path fill="#E8B720" opacity="1.000000" stroke="none" 
	d="
M279.089905,65.996559 
	C291.457367,65.998184 303.824860,65.999809 316.672974,66.001740 
	C317.242096,68.735756 317.330536,71.469467 317.298096,74.611351 
	C305.467926,75.012833 293.757568,75.086044 282.050293,74.928154 
	C279.859222,74.898605 277.680695,73.943771 275.473816,72.897591 
	C276.664154,70.251678 277.877045,68.124123 279.089905,65.996559 
z"/>
<path fill="#DDC621" opacity="1.000000" stroke="none" 
	d="
M69.070358,47.195084 
	C67.013290,46.796558 64.958702,46.068401 62.898754,46.052887 
	C49.302479,45.950474 35.705048,46.001324 21.652472,46.003212 
	C21.152538,44.284187 21.108126,42.564182 21.129293,40.418541 
	C40.448608,39.995674 59.702469,39.968925 78.955894,40.047623 
	C80.847084,40.055351 82.735626,40.710426 84.534966,41.534279 
	C82.904381,42.647141 81.961479,45.231071 79.503830,42.917469 
	C78.658325,42.121521 76.047707,42.521801 74.620018,43.185574 
	C72.587990,44.130310 70.903389,45.822315 69.070358,47.195084 
z"/>
<path fill="#E9E77A" opacity="1.000000" stroke="none" 
	d="
M306.830566,27.001570 
	C214.890091,27.001726 123.426277,27.018002 31.962614,26.909912 
	C29.624990,26.907152 25.295271,28.873814 25.332056,24.362953 
	C25.365654,20.242702 29.494612,22.078934 31.734579,22.076452 
	C123.198257,21.975115 214.662064,21.989824 306.125854,21.990021 
	C306.958862,21.990023 307.915405,21.728403 308.599701,22.048170 
	C310.129150,22.762882 311.522888,23.768026 312.971924,24.654869 
	C311.583435,25.435244 310.218170,26.262678 308.791656,26.965942 
	C308.388916,27.164497 307.807007,26.999611 306.830566,27.001570 
z"/>
<path fill="#6A4620" opacity="1.000000" stroke="none" 
	d="
M279.012848,65.613655 
	C277.877045,68.124123 276.664154,70.251678 275.204437,72.612778 
	C270.074524,72.622482 265.190979,72.408958 260.309052,72.162575 
	C259.652313,72.129433 258.814453,71.605469 258.380493,71.858238 
	C253.106445,74.929916 247.477829,73.048737 241.999847,73.137207 
	C239.515472,73.177322 237.026764,73.045677 234.545013,73.133499 
	C229.141006,73.324730 223.635040,74.355484 218.371201,73.616058 
	C214.119553,73.018829 210.161407,70.332062 206.374924,68.702187 
	C205.931473,73.021408 203.439621,74.650848 197.353500,73.434212 
	C195.764984,73.116646 193.927841,72.075699 192.640060,72.549591 
	C185.785980,75.071815 179.931183,73.725708 174.527100,68.148857 
	C170.023926,75.948723 162.703293,73.008781 156.350250,73.376427 
	C153.029434,73.568604 151.370224,71.121742 151.471405,67.042168 
	C151.449097,61.207260 151.297302,56.105488 151.181274,50.587227 
	C150.378052,45.908161 152.065079,43.155552 156.443222,43.229977 
	C163.703018,43.353386 171.891098,41.471256 175.528061,50.668999 
	C183.628174,45.913204 184.335968,45.838696 191.745850,48.181683 
	C195.307526,45.702473 198.157364,43.718769 201.007187,41.735062 
	C204.381470,41.838116 207.755737,41.941174 211.501373,42.172920 
	C212.410065,43.825867 212.947433,45.350121 213.454300,46.787914 
	C224.174347,47.560520 234.673172,48.317184 247.101974,49.212944 
	C254.062225,44.780239 254.576019,44.749283 259.374268,49.657337 
	C268.702179,44.883167 273.697021,45.922054 278.391235,53.845913 
	C278.692749,57.821285 278.814270,61.526016 279.012848,65.613655 
M247.423218,67.526024 
	C248.385376,68.817085 249.347549,70.108147 250.427643,71.557434 
	C254.098236,69.484787 258.085571,68.209625 258.689606,63.467628 
	C261.221863,69.308304 265.087463,71.660965 270.633698,70.723854 
	C274.574677,70.057968 277.192047,68.482452 275.477234,64.078239 
	C272.676483,64.312225 270.036865,64.532761 267.397247,64.753288 
	C267.347626,64.293205 267.298004,63.833122 267.248383,63.373039 
	C269.019623,62.534943 270.815796,61.745235 272.557190,60.849064 
	C276.702606,58.715706 277.195099,56.445576 274.372223,52.762020 
	C271.154938,48.563713 264.937317,48.676571 260.917450,52.901226 
	C259.750244,54.127872 258.289429,55.075089 256.967621,55.319702 
	C256.221588,53.310005 255.475571,51.300304 254.729553,49.290600 
	C252.821365,50.052418 250.777740,50.593441 249.051605,51.652107 
	C247.860260,52.382774 247.107941,53.829292 245.788391,54.952618 
	C245.541168,54.960354 245.294022,54.970421 244.508072,54.558697 
	C242.094513,52.546173 240.054031,49.011192 236.261612,52.591385 
	C236.086578,52.756634 235.316833,52.254978 234.810379,52.112488 
	C232.612854,51.494213 230.410248,50.893978 228.042984,50.241272 
	C228.042984,57.640396 228.042984,63.728836 228.042984,70.087814 
	C230.385178,70.087814 232.437561,70.087814 234.649597,70.087814 
	C234.649597,67.703949 234.222885,65.466438 234.777374,63.506535 
	C235.268250,61.771477 236.850937,60.345306 237.951599,58.782768 
	C238.338684,59.015617 238.725769,59.248463 239.112854,59.481312 
	C239.112854,62.930645 239.112854,66.379974 239.112854,70.515518 
	C241.646606,69.559212 245.306656,72.183388 245.756454,67.002388 
	C246.152374,67.003578 246.548309,67.004768 247.423218,67.526024 
M194.389633,54.859844 
	C193.947266,55.184586 193.504898,55.509323 193.044022,55.109615 
	C190.876373,53.335808 188.954468,50.627228 186.490784,49.979591 
	C181.088181,48.559395 178.283691,52.893841 175.584732,56.820568 
	C168.574478,43.891190 169.969025,46.887505 157.205154,46.269855 
	C156.237976,46.223049 154.333618,48.009693 154.303070,48.988918 
	C154.106644,55.287895 154.222504,61.603027 154.481628,67.902756 
	C154.519684,68.827644 155.716797,70.271156 156.626968,70.505219 
	C164.680847,72.576454 169.646317,70.410049 174.108673,63.197586 
	C174.485321,62.588806 175.030960,62.084579 175.627060,61.379162 
	C177.809875,68.960258 182.372406,71.890800 188.895248,70.578339 
	C193.016006,69.749191 194.034592,67.571045 192.905258,64.140350 
	C190.104858,64.323807 187.475571,64.496048 184.846298,64.668289 
	C184.856918,64.287140 184.867523,63.905991 184.878143,63.524837 
	C187.581757,62.003822 190.285385,60.482803 193.558960,58.999565 
	C194.040390,59.275223 194.521805,59.550880 195.619644,60.420040 
	C195.907532,63.649616 196.195419,66.879189 196.505585,70.358742 
	C198.889359,70.358742 200.960251,70.358742 203.187408,70.358742 
	C203.187408,67.014572 203.187408,63.959648 203.187408,60.978287 
	C206.612488,60.185322 208.167465,61.305687 209.178696,64.514328 
	C210.582413,68.968277 214.250397,70.908707 218.874023,70.857864 
	C224.689392,70.793930 226.055969,69.326431 225.473495,63.983891 
	C222.770950,64.279137 220.058395,64.575470 217.345840,64.871811 
	C217.277145,64.413582 217.208435,63.955349 217.139740,63.497116 
	C218.755890,62.715660 220.578659,62.188259 221.933990,61.086082 
	C223.499680,59.812840 226.080490,57.388241 225.721130,56.593060 
	C224.600571,54.113445 222.698944,51.337490 220.361038,50.212711 
	C217.028992,48.609646 213.522827,49.976299 210.962784,52.901955 
	C210.030121,53.967796 209.149124,55.078827 208.590332,55.752430 
	C206.298080,54.725441 204.582565,53.956837 201.247940,52.462837 
	C204.470459,51.516861 206.373291,50.958275 208.789398,50.249020 
	C209.033737,49.130577 209.378326,47.553242 209.897141,45.499580 
	C209.592087,45.232559 209.287018,44.965538 208.218842,44.395790 
	C199.419907,43.839790 197.970825,44.900173 195.798676,53.378044 
	C195.690567,53.799957 195.177231,54.118031 194.389633,54.859844 
z"/>
<path fill="#69451F" opacity="1.000000" stroke="none" 
	d="
M68.933502,47.520107 
	C70.903389,45.822315 72.587990,44.130310 74.620018,43.185574 
	C76.047707,42.521801 78.658325,42.121521 79.503830,42.917469 
	C81.961479,45.231071 82.904381,42.647141 84.727615,41.860062 
	C87.047569,41.737053 89.084450,41.757515 91.884735,41.934753 
	C93.458145,43.432289 94.156380,44.860310 95.113480,46.086224 
	C95.880653,47.068890 97.255577,48.709656 97.858833,48.513634 
	C104.337479,46.408436 110.672729,49.910004 117.461563,48.362202 
	C122.855667,47.132389 128.203537,47.755409 131.009293,41.818039 
	C133.375061,41.815735 135.740829,41.813435 138.865143,41.975452 
	C141.314926,45.100994 143.006149,48.062210 144.681976,51.403675 
	C144.024277,54.724525 143.381973,57.665127 142.691925,60.824318 
	C145.324188,61.302029 146.967484,63.336571 146.101501,66.994179 
	C144.819717,70.718819 143.458313,74.225677 138.397736,73.838005 
	C130.082153,73.200974 128.328568,67.557381 128.812149,60.366146 
	C123.905304,60.874115 123.957581,64.165138 124.401428,66.687416 
	C125.287613,71.723328 122.437431,73.777313 118.525627,73.827820 
	C112.056931,73.911339 105.577713,73.031654 99.098831,72.622711 
	C98.040657,72.555923 96.878082,72.603134 95.906548,72.972855 
	C91.921043,74.489517 88.182121,74.738007 84.968529,71.353485 
	C82.858398,69.131142 81.203011,70.161507 79.559776,71.976479 
	C77.067154,74.729607 74.413765,75.548935 71.246887,72.341263 
	C69.807594,70.328735 68.655296,68.460472 67.359070,66.296555 
	C68.244415,64.207939 69.273689,62.414993 70.302757,60.622162 
	C69.294052,58.626808 68.285561,56.631351 67.109192,54.316849 
	C67.559761,51.946911 68.178200,49.896023 68.933502,47.520107 
M93.299088,64.064491 
	C91.025391,61.634075 90.394722,59.570309 93.489853,56.948555 
	C94.617188,55.993637 94.807976,53.062225 94.343330,51.321579 
	C93.776505,49.198174 92.069397,47.379158 90.592941,45.006664 
	C89.345070,45.006664 87.246628,45.006664 84.941269,45.006664 
	C84.941269,46.880505 84.941269,48.489765 84.941269,51.906239 
	C81.760048,49.018345 79.577179,47.036747 77.159035,44.841572 
	C75.743980,45.871265 74.248970,46.890762 72.829720,48.006611 
	C70.158661,50.106670 68.646355,53.045174 71.047371,55.751396 
	C74.628784,59.788067 73.955322,62.988731 69.988449,66.321960 
	C71.929428,68.366455 73.594254,70.120064 75.225655,71.838470 
	C82.686615,66.029297 83.071762,64.738007 79.020004,57.499626 
	C77.235649,54.311913 78.722145,53.101009 81.820412,51.875191 
	C82.947685,55.905617 84.401154,59.542698 84.892723,63.305447 
	C85.369347,66.953758 86.164703,69.685417 90.174454,70.700211 
	C94.105484,71.695091 95.797096,69.657585 96.318329,65.903740 
	C102.210167,71.437248 102.438309,71.482719 106.655540,68.374077 
	C108.158813,70.022682 119.131950,71.582115 120.622215,70.079659 
	C121.322174,69.373978 121.336380,67.786575 121.319115,66.603737 
	C121.207375,58.949795 123.648659,56.784336 131.592148,57.631573 
	C132.449982,68.970467 133.440552,70.845047 138.663910,70.852219 
	C143.490814,70.858849 142.361374,67.001320 143.078400,65.026833 
	C141.191238,63.927586 138.785385,63.266037 138.638397,62.270863 
	C138.405548,60.694359 139.825882,58.931690 140.285217,57.179249 
	C140.780746,55.288765 141.582733,53.168156 141.147812,51.422840 
	C140.604416,49.242077 138.935425,47.341793 137.559509,44.990906 
	C136.111557,44.990906 133.996887,44.990906 131.674622,44.990906 
	C131.674622,46.950294 131.674622,48.657810 131.674622,50.373081 
	C126.027084,50.717243 120.680725,51.043053 114.872192,51.397030 
	C114.872192,56.239437 114.872192,61.147366 114.872192,66.055298 
	C113.487434,62.537743 112.858574,58.946793 111.664719,55.554695 
	C110.230904,51.480858 105.664444,49.591869 100.219086,51.354401 
	C98.467339,51.921398 97.498253,54.906456 95.691666,57.464035 
	C98.845123,57.817600 100.494629,58.002541 103.458313,58.334827 
	C99.562706,60.749912 96.853058,62.429760 93.299088,64.064491 
z"/>
<path fill="#DDC621" opacity="1.000000" stroke="none" 
	d="
M144.697372,51.023426 
	C143.006149,48.062210 141.314926,45.100994 139.308105,41.958076 
	C140.410400,41.185753 141.825012,40.090355 143.246689,40.081112 
	C161.151718,39.964748 179.057861,39.984158 196.963409,40.051701 
	C198.186371,40.056316 199.406830,40.722244 200.817825,41.407837 
	C198.157364,43.718769 195.307526,45.702473 191.745850,48.181683 
	C184.335968,45.838696 183.628174,45.913204 175.528061,50.668999 
	C171.891098,41.471256 163.703018,43.353386 156.443222,43.229977 
	C152.065079,43.155552 150.378052,45.908161 150.722794,50.586903 
	C148.384827,51.009857 146.541092,51.016644 144.697372,51.023426 
z"/>
<path fill="#DDC621" opacity="1.000000" stroke="none" 
	d="
M130.827576,41.481789 
	C128.203537,47.755409 122.855667,47.132389 117.461563,48.362202 
	C110.672729,49.910004 104.337479,46.408436 97.858833,48.513634 
	C97.255577,48.709656 95.880653,47.068890 95.113480,46.086224 
	C94.156380,44.860310 93.458145,43.432289 92.320724,41.911041 
	C93.086655,41.159473 94.174744,40.104172 95.274147,40.092258 
	C106.187027,39.974007 117.101959,40.002796 128.015640,40.081795 
	C128.894897,40.088158 129.769226,40.774940 130.827576,41.481789 
z"/>
<path fill="#E0BD21" opacity="1.000000" stroke="none" 
	d="
M144.681976,51.403675 
	C146.541092,51.016644 148.384827,51.009857 150.687042,51.003395 
	C151.297302,56.105488 151.449097,61.207260 151.425385,66.677406 
	C149.818604,67.029816 148.387299,67.013847 146.528748,66.996025 
	C146.967484,63.336571 145.324188,61.302029 142.691925,60.824318 
	C143.381973,57.665127 144.024277,54.724525 144.681976,51.403675 
z"/>
<path fill="#F8F7F6" opacity="1.000000" stroke="none" 
	d="
M192.989014,58.961784 
	C190.285385,60.482803 187.581757,62.003822 184.878143,63.524837 
	C184.867523,63.905991 184.856918,64.287140 184.846298,64.668289 
	C187.475571,64.496048 190.104858,64.323807 192.905258,64.140350 
	C194.034592,67.571045 193.016006,69.749191 188.895248,70.578339 
	C182.372406,71.890800 177.809875,68.960258 175.627060,61.379162 
	C175.030960,62.084579 174.485321,62.588806 174.108673,63.197586 
	C169.646317,70.410049 164.680847,72.576454 156.626968,70.505219 
	C155.716797,70.271156 154.519684,68.827644 154.481628,67.902756 
	C154.222504,61.603027 154.106644,55.287895 154.303070,48.988918 
	C154.333618,48.009693 156.237976,46.223049 157.205154,46.269855 
	C169.969025,46.887505 168.574478,43.891190 175.584732,56.820568 
	C178.283691,52.893841 181.088181,48.559395 186.490784,49.979591 
	C188.954468,50.627228 190.876373,53.335808 193.031876,55.862366 
	C193.009491,57.397335 192.999252,58.179562 192.989014,58.961784 
M167.554550,60.087959 
	C166.419357,56.977665 165.284149,53.867374 164.148941,50.757080 
	C163.672394,50.942810 163.195831,51.128544 162.719284,51.314274 
	C162.719284,56.046574 162.719284,60.778873 162.719284,65.511177 
	C163.053040,65.623116 163.386795,65.735062 163.720535,65.847000 
	C164.909927,64.154022 166.099319,62.461052 167.554550,60.087959 
z"/>
<path fill="#F7F5F4" opacity="1.000000" stroke="none" 
	d="
M209.722931,45.975903 
	C209.378326,47.553242 209.033737,49.130577 208.789398,50.249020 
	C206.373291,50.958275 204.470459,51.516861 201.247940,52.462837 
	C204.582565,53.956837 206.298080,54.725441 208.590332,55.752430 
	C209.149124,55.078827 210.030121,53.967796 210.962784,52.901955 
	C213.522827,49.976299 217.028992,48.609646 220.361038,50.212711 
	C222.698944,51.337490 224.600571,54.113445 225.721130,56.593060 
	C226.080490,57.388241 223.499680,59.812840 221.933990,61.086082 
	C220.578659,62.188259 218.755890,62.715660 217.139740,63.497116 
	C217.208435,63.955349 217.277145,64.413582 217.345840,64.871811 
	C220.058395,64.575470 222.770950,64.279137 225.473495,63.983891 
	C226.055969,69.326431 224.689392,70.793930 218.874023,70.857864 
	C214.250397,70.908707 210.582413,68.968277 209.178696,64.514328 
	C208.167465,61.305687 206.612488,60.185322 203.187408,60.978287 
	C203.187408,63.959648 203.187408,67.014572 203.187408,70.358742 
	C200.960251,70.358742 198.889359,70.358742 196.505585,70.358742 
	C196.195419,66.879189 195.907532,63.649616 195.311768,59.681183 
	C194.953461,57.456367 194.903030,55.970413 194.852600,54.484451 
	C195.177231,54.118031 195.690567,53.799957 195.798676,53.378044 
	C197.970825,44.900173 199.419907,43.839790 208.650635,44.728565 
	C209.295929,45.366196 209.509430,45.671047 209.722931,45.975903 
M208.514999,57.845890 
	C208.514999,57.845890 208.425278,58.119267 208.425278,58.119267 
	C208.425278,58.119267 208.628220,57.945927 208.514999,57.845890 
z"/>
<path fill="#F8F7F6" opacity="1.000000" stroke="none" 
	d="
M256.963196,56.150398 
	C258.289429,55.075089 259.750244,54.127872 260.917450,52.901226 
	C264.937317,48.676571 271.154938,48.563713 274.372223,52.762020 
	C277.195099,56.445576 276.702606,58.715706 272.557190,60.849064 
	C270.815796,61.745235 269.019623,62.534943 267.248383,63.373039 
	C267.298004,63.833122 267.347626,64.293205 267.397247,64.753288 
	C270.036865,64.532761 272.676483,64.312225 275.477234,64.078239 
	C277.192047,68.482452 274.574677,70.057968 270.633698,70.723854 
	C265.087463,71.660965 261.221863,69.308304 258.369507,62.922783 
	C257.687317,60.302090 257.325256,58.226242 256.963196,56.150398 
z"/>
<path fill="#FAF9F8" opacity="1.000000" stroke="none" 
	d="
M245.162613,67.008163 
	C245.306656,72.183388 241.646606,69.559212 239.112854,70.515518 
	C239.112854,66.379974 239.112854,62.930645 239.112854,59.481312 
	C238.725769,59.248463 238.338684,59.015617 237.951599,58.782768 
	C236.850937,60.345306 235.268250,61.771477 234.777374,63.506535 
	C234.222885,65.466438 234.649597,67.703949 234.649597,70.087814 
	C232.437561,70.087814 230.385178,70.087814 228.042984,70.087814 
	C228.042984,63.728836 228.042984,57.640396 228.042984,50.241272 
	C230.410248,50.893978 232.612854,51.494213 234.810379,52.112488 
	C235.316833,52.254978 236.086578,52.756634 236.261612,52.591385 
	C240.054031,49.011192 242.094513,52.546173 244.860229,55.231236 
	C245.195801,59.605236 245.179199,63.306702 245.162613,67.008163 
z"/>
<path fill="#F5F3F2" opacity="1.000000" stroke="none" 
	d="
M256.965393,55.735046 
	C257.325256,58.226242 257.687317,60.302090 258.062378,62.784538 
	C258.085571,68.209625 254.098236,69.484787 250.427643,71.557434 
	C249.347549,70.108147 248.385376,68.817085 247.193176,66.887344 
	C250.530869,63.698288 250.674255,61.054245 247.410843,58.040688 
	C246.673187,57.359512 246.560043,56.002052 246.159409,54.955902 
	C247.107941,53.829292 247.860260,52.382774 249.051605,51.652107 
	C250.777740,50.593441 252.821365,50.052418 254.729553,49.290604 
	C255.475571,51.300304 256.221588,53.310005 256.965393,55.735046 
z"/>
<path fill="#6C4A29" opacity="1.000000" stroke="none" 
	d="
M245.973907,54.954262 
	C246.560043,56.002052 246.673187,57.359512 247.410843,58.040688 
	C250.674255,61.054245 250.530869,63.698288 246.953674,66.627319 
	C246.548309,67.004768 246.152374,67.003578 245.459534,67.005280 
	C245.179199,63.306702 245.195801,59.605236 245.129684,55.443291 
	C245.294022,54.970421 245.541168,54.960354 245.973907,54.954262 
z"/>
<path fill="#F5F4F3" opacity="1.000000" stroke="none" 
	d="
M194.621124,54.672150 
	C194.903030,55.970413 194.953461,57.456367 195.003571,59.384430 
	C194.521805,59.550880 194.040390,59.275223 193.273987,58.980675 
	C192.999252,58.179562 193.009491,57.397335 193.041122,56.224586 
	C193.504898,55.509323 193.947266,55.184586 194.621124,54.672150 
z"/>
<path fill="#F5F4F3" opacity="1.000000" stroke="none" 
	d="
M209.810028,45.737740 
	C209.509430,45.671047 209.295929,45.366196 209.032196,44.879929 
	C209.287018,44.965538 209.592087,45.232559 209.810028,45.737740 
z"/>
<path fill="#F8F7F6" opacity="1.000000" stroke="none" 
	d="
M93.721252,64.087051 
	C96.853058,62.429760 99.562706,60.749912 103.458313,58.334827 
	C100.494629,58.002541 98.845123,57.817600 95.691666,57.464035 
	C97.498253,54.906456 98.467339,51.921398 100.219086,51.354401 
	C105.664444,49.591869 110.230904,51.480858 111.664719,55.554695 
	C112.858574,58.946793 113.487434,62.537743 114.872192,66.055298 
	C114.872192,61.147366 114.872192,56.239437 114.872192,51.397030 
	C120.680725,51.043053 126.027084,50.717243 131.674622,50.373081 
	C131.674622,48.657810 131.674622,46.950294 131.674622,44.990906 
	C133.996887,44.990906 136.111557,44.990906 137.559509,44.990906 
	C138.935425,47.341793 140.604416,49.242077 141.147812,51.422840 
	C141.582733,53.168156 140.780746,55.288765 140.285217,57.179249 
	C139.825882,58.931690 138.405548,60.694359 138.638397,62.270863 
	C138.785385,63.266037 141.191238,63.927586 143.078400,65.026833 
	C142.361374,67.001320 143.490814,70.858849 138.663910,70.852219 
	C133.440552,70.845047 132.449982,68.970467 131.592148,57.631573 
	C123.648659,56.784336 121.207375,58.949795 121.319115,66.603737 
	C121.336380,67.786575 121.322174,69.373978 120.622215,70.079659 
	C119.131950,71.582115 108.158813,70.022682 106.655540,68.374077 
	C102.438309,71.482719 102.210167,71.437248 96.318329,65.903740 
	C95.797096,69.657585 94.105484,71.695091 90.174454,70.700211 
	C86.164703,69.685417 85.369347,66.953758 84.892723,63.305447 
	C84.401154,59.542698 82.947685,55.905617 81.820412,51.875191 
	C78.722145,53.101009 77.235649,54.311913 79.020004,57.499626 
	C83.071762,64.738007 82.686615,66.029297 75.225655,71.838470 
	C73.594254,70.120064 71.929428,68.366455 69.988449,66.321960 
	C73.955322,62.988731 74.628784,59.788067 71.047371,55.751396 
	C68.646355,53.045174 70.158661,50.106670 72.829720,48.006611 
	C74.248970,46.890762 75.743980,45.871265 77.159035,44.841572 
	C79.577179,47.036747 81.760048,49.018345 84.941269,51.906239 
	C84.941269,48.489765 84.941269,46.880505 84.941269,45.006664 
	C87.246628,45.006664 89.345070,45.006664 90.592941,45.006664 
	C92.069397,47.379158 93.776505,49.198174 94.343330,51.321579 
	C94.807976,53.062225 94.617188,55.993637 93.489853,56.948555 
	C90.394722,59.570309 91.025391,61.634075 93.721252,64.087051 
M106.465988,63.555176 
	C105.893257,63.418251 105.320526,63.281322 104.747795,63.144394 
	C104.805740,63.833019 104.863686,64.521645 104.921623,65.210274 
	C105.392990,64.832771 105.864365,64.455269 106.465988,63.555176 
z"/>
<path fill="#715133" opacity="1.000000" stroke="none" 
	d="
M167.421631,60.428017 
	C166.099319,62.461052 164.909927,64.154022 163.720535,65.847000 
	C163.386795,65.735062 163.053040,65.623116 162.719284,65.511177 
	C162.719284,60.778873 162.719284,56.046574 162.719284,51.314274 
	C163.195831,51.128544 163.672394,50.942810 164.148941,50.757080 
	C165.284149,53.867374 166.419357,56.977665 167.421631,60.428017 
z"/>
<path fill="#F5F4F3" opacity="1.000000" stroke="none" 
	d="
M208.571609,57.895908 
	C208.628220,57.945927 208.425278,58.119267 208.425278,58.119267 
	C208.425278,58.119267 208.514999,57.845890 208.571609,57.895908 
z"/>
<path fill="#F8F7F6" opacity="1.000000" stroke="none" 
	d="
M106.400864,63.816471 
	C105.864365,64.455269 105.392990,64.832771 104.921623,65.210274 
	C104.863686,64.521645 104.805740,63.833019 104.747795,63.144394 
	C105.320526,63.281322 105.893257,63.418251 106.400864,63.816471 
z"/>
</svg>